ffmpeg started on 2025-05-24 at 14:55:53
Report written to "D:\Convert\FFMetrics\reports\psnr_report-6.txt"
Log level: 32
Command line:
ffmpeg -hide_banner -nostdin -i "G:\\\xc0\xed\xe8\xec\xe5\\\xce\xed\xe3\xee\xe8\xed\xe3\xe8\\!_33_\xc7\xe8\xec\xe0_2024\\DreamCast\\\xcd\xe5\xf0\xe0\xe7\xf3\xec\xed\xfb\xe9 \xe0\xed\xe3\xe5\xeb \xe2 \xf2\xe0\xed\xf6\xe5 \xf1 \xe4\xe5\xec\xee\xed\xee\xec\\[DC] Oroka na Tenshi wa Akuma to Odoru - 01_Telegram_HEVC.mkv" -i "G:\\\xc0\xed\xe8\xec\xe5\\\xce\xed\xe3\xee\xe8\xed\xe3\xe8\\!_33_\xc7\xe8\xec\xe0_2024\\DreamCast\\\xcd\xe5\xf0\xe0\xe7\xf3\xec\xed\xfb\xe9 \xe0\xed\xe3\xe5\xeb \xe2 \xf2\xe0\xed\xf6\xe5 \xf1 \xe4\xe5\xec\xee\xed\xee\xec\\[DC] Oroka na Tenshi wa Akuma to Odoru - 01_Telegram.mp4" -lavfi "[0:v]settb=AVTB,setpts=PTS-STARTPTS,format=pix_fmts=yuv420p10,fps=24000/1001,scale=1920:1080:flags=bicubic[main];[1:v]settb=AVTB,setpts=PTS-STARTPTS,format=pix_fmts=yuv420p,fps=24000/1001,scale=1920:1080:flags=bicubic[ref];[main][ref]psnr=eof_action=endall:stats_file='D\\:/Convert/FFMetrics/logs/psnr_logfile-6.txt'" -f null -
Input #0, matroska,webm, from 'G:\Аниме\Онгоинги\!_33_Зима_2024\DreamCast\Неразумный ангел в танце с демоном\[DC] Oroka na Tenshi wa Akuma to Odoru - 01_Telegram_HEVC.mkv':
  Metadata:
    COMPATIBLE_BRANDS: isomiso2avc1mp41
    MAJOR_BRAND     : isom
    MINOR_VERSION   : 512
    ENCODER         : Lavf61.7.100
  Duration: 00:23:46.73, start: -0.021000, bitrate: 1140 kb/s
  Stream #0:0: Video: hevc (Main 10), yuv420p10le(tv, bt709, progressive), 1920x1080 [SAR 1:1 DAR 16:9], 23.98 fps, 23.98 tbr, 1k tbn (default)
      Metadata:
        HANDLER_NAME    : VideoHandler
        VENDOR_ID       : [0][0][0][0]
        ENCODER         : Lavc61.19.100 libx265
        BPS             : 942680
        DURATION        : 00:23:46.633708333
        NUMBER_OF_FRAMES: 34205
        NUMBER_OF_BYTES : 168107349
        _STATISTICS_WRITING_APP: mkvpropedit v66.0.0 ('Josie') 64-bit
        _STATISTICS_WRITING_DATE_UTC: 2025-05-23 14:37:59
        _STATISTICS_TAGS: BPS DURATION NUMBER_OF_FRAMES NUMBER_OF_BYTES
  Stream #0:1: Audio: aac (LC), 48000 Hz, stereo, fltp (default)
      Metadata:
        HANDLER_NAME    : SoundHandler
        VENDOR_ID       : [0][0][0][0]
        ENCODER         : Lavc61.19.100 aac
        BPS             : 194141
        DURATION        : 00:23:46.730000000
        NUMBER_OF_FRAMES: 66879
        NUMBER_OF_BYTES : 34623418
        _STATISTICS_WRITING_APP: mkvpropedit v66.0.0 ('Josie') 64-bit
        _STATISTICS_WRITING_DATE_UTC: 2025-05-23 14:37:59
        _STATISTICS_TAGS: BPS DURATION NUMBER_OF_FRAMES NUMBER_OF_BYTES
Input #1, mov,mp4,m4a,3gp,3g2,mj2, from 'G:\Аниме\Онгоинги\!_33_Зима_2024\DreamCast\Неразумный ангел в танце с демоном\[DC] Oroka na Tenshi wa Akuma to Odoru - 01_Telegram.mp4':
  Metadata:
    major_brand     : isom
    minor_version   : 512
    compatible_brands: isomiso2avc1mp41
    encoder         : Lavf60.16.100
  Duration: 00:23:46.70, start: 0.000000, bitrate: 3810 kb/s
  Stream #1:0[0x1](und): Video: h264 (High) (avc1 / 0x31637661), yuv420p(tv, bt709, progressive), 1920x1080 [SAR 1:1 DAR 16:9], 3662 kb/s, 23.98 fps, 23.98 tbr, 24k tbn (default)
      Metadata:
        handler_name    : VideoHandler
        vendor_id       : [0][0][0][0]
        encoder         : Lavc60.31.102 h264_qsv
  Stream #1:1[0x2](und): Audio: aac (HE-AACv2) (mp4a / 0x6134706D), 48000 Hz, stereo, fltp, 144 kb/s (default)
      Metadata:
        handler_name    : SoundHandler
        vendor_id       : [0][0][0][0]
Stream mapping:
  Stream #0:0 (hevc) -> settb:default
  Stream #1:0 (h264) -> settb:default
  psnr:default -> Stream #0:0 (wrapped_avframe)
  Stream #0:1 -> #0:1 (aac (native) -> pcm_s16le (native))
Output #0, null, to 'pipe:':
  Metadata:
    COMPATIBLE_BRANDS: isomiso2avc1mp41
    MAJOR_BRAND     : isom
    MINOR_VERSION   : 512
    encoder         : Lavf61.7.100
  Stream #0:0: Video: wrapped_avframe, yuv420p10le(tv, bt709, progressive), 1920x1080 [SAR 1:1 DAR 16:9], q=2-31, 200 kb/s, 23.98 fps, 23.98 tbn
      Metadata:
        encoder         : Lavc61.19.100 wrapped_avframe
  Stream #0:1: Audio: pcm_s16le, 48000 Hz, stereo, s16, 1536 kb/s (default)
      Metadata:
        HANDLER_NAME    : SoundHandler
        VENDOR_ID       : [0][0][0][0]
        _STATISTICS_TAGS: BPS DURATION NUMBER_OF_FRAMES NUMBER_OF_BYTES
        BPS             : 194141
        DURATION        : 00:23:46.730000000
        NUMBER_OF_FRAMES: 66879
        NUMBER_OF_BYTES : 34623418
        _STATISTICS_WRITING_APP: mkvpropedit v66.0.0 ('Josie') 64-bit
        _STATISTICS_WRITING_DATE_UTC: 2025-05-23 14:37:59
        encoder         : Lavc61.19.100 pcm_s16le
frame=  196 fps=0.0 q=-0.0 size=N/A time=00:00:08.17 bitrate=N/A speed=15.7x    frame=  423 fps=410 q=-0.0 size=N/A time=00:00:17.64 bitrate=N/A speed=17.1x    frame=  683 fps=439 q=-0.0 size=N/A time=00:00:28.48 bitrate=N/A speed=18.3x    frame=  925 fps=448 q=-0.0 size=N/A time=00:00:38.58 bitrate=N/A speed=18.7x    frame= 1167 fps=453 q=-0.0 size=N/A time=00:00:48.67 bitrate=N/A speed=18.9x    frame= 1415 fps=458 q=-0.0 size=N/A time=00:00:59.01 bitrate=N/A speed=19.1x    frame= 1622 fps=449 q=-0.0 size=N/A time=00:01:07.65 bitrate=N/A speed=18.7x    frame= 1841 fps=446 q=-0.0 size=N/A time=00:01:16.78 bitrate=N/A speed=18.6x    frame= 2053 fps=441 q=-0.0 size=N/A time=00:01:25.62 bitrate=N/A speed=18.4x    frame= 2301 fps=446 q=-0.0 size=N/A time=00:01:35.97 bitrate=N/A speed=18.6x    frame= 2517 fps=444 q=-0.0 size=N/A time=00:01:44.97 bitrate=N/A speed=18.5x    frame= 2696 fps=436 q=-0.0 size=N/A time=00:01:52.44 bitrate=N/A speed=18.2x    frame= 2896 fps=432 q=-0.0 size=N/A time=00:02:00.78 bitrate=N/A speed=  18x    frame= 3159 fps=438 q=-0.0 size=N/A time=00:02:11.75 bitrate=N/A speed=18.2x    frame= 3390 fps=439 q=-0.0 size=N/A time=00:02:21.39 bitrate=N/A speed=18.3x    frame= 3694 fps=447 q=-0.0 size=N/A time=00:02:34.07 bitrate=N/A speed=18.7x    frame= 3977 fps=454 q=-0.0 size=N/A time=00:02:45.87 bitrate=N/A speed=18.9x    frame= 4211 fps=454 q=-0.0 size=N/A time=00:02:55.63 bitrate=N/A speed=18.9x    frame= 4519 fps=461 q=-0.0 size=N/A time=00:03:08.47 bitrate=N/A speed=19.2x    frame= 4782 fps=464 q=-0.0 size=N/A time=00:03:19.44 bitrate=N/A speed=19.3x    frame= 5038 fps=465 q=-0.0 size=N/A time=00:03:30.12 bitrate=N/A speed=19.4x    frame= 5304 fps=467 q=-0.0 size=N/A time=00:03:41.22 bitrate=N/A speed=19.5x    frame= 5553 fps=468 q=-0.0 size=N/A time=00:03:51.60 bitrate=N/A speed=19.5x    frame= 5800 fps=469 q=-0.0 size=N/A time=00:04:01.90 bitrate=N/A speed=19.6x    frame= 6077 fps=471 q=-0.0 size=N/A time=00:04:13.46 bitrate=N/A speed=19.7x    frame= 6280 fps=468 q=-0.0 size=N/A time=00:04:21.92 bitrate=N/A speed=19.5x    frame= 6533 fps=469 q=-0.0 size=N/A time=00:04:32.48 bitrate=N/A speed=19.6x    frame= 6823 fps=472 q=-0.0 size=N/A time=00:04:44.57 bitrate=N/A speed=19.7x    frame= 7039 fps=471 q=-0.0 size=N/A time=00:04:53.58 bitrate=N/A speed=19.6x    frame= 7289 fps=471 q=-0.0 size=N/A time=00:05:04.01 bitrate=N/A speed=19.7x    frame= 7517 fps=470 q=-0.0 size=N/A time=00:05:13.52 bitrate=N/A speed=19.6x    frame= 7727 fps=468 q=-0.0 size=N/A time=00:05:22.28 bitrate=N/A speed=19.5x    frame= 7972 fps=469 q=-0.0 size=N/A time=00:05:32.49 bitrate=N/A speed=19.5x    frame= 8212 fps=468 q=-0.0 size=N/A time=00:05:42.50 bitrate=N/A speed=19.5x    frame= 8445 fps=468 q=-0.0 size=N/A time=00:05:52.22 bitrate=N/A speed=19.5x    frame= 8700 fps=469 q=-0.0 size=N/A time=00:06:02.86 bitrate=N/A speed=19.6x    frame= 8989 fps=471 q=-0.0 size=N/A time=00:06:14.91 bitrate=N/A speed=19.6x    frame= 9262 fps=473 q=-0.0 size=N/A time=00:06:26.30 bitrate=N/A speed=19.7x    frame= 9490 fps=472 q=-0.0 size=N/A time=00:06:35.81 bitrate=N/A speed=19.7x    frame= 9763 fps=473 q=-0.0 size=N/A time=00:06:47.19 bitrate=N/A speed=19.7x    frame=10012 fps=474 q=-0.0 size=N/A time=00:06:57.58 bitrate=N/A speed=19.8x    frame=10265 fps=474 q=-0.0 size=N/A time=00:07:08.13 bitrate=N/A speed=19.8x    frame=10517 fps=474 q=-0.0 size=N/A time=00:07:18.64 bitrate=N/A speed=19.8x    frame=10775 fps=475 q=-0.0 size=N/A time=00:07:29.40 bitrate=N/A speed=19.8x    frame=11031 fps=476 q=-0.0 size=N/A time=00:07:40.08 bitrate=N/A speed=19.8x    frame=11257 fps=475 q=-0.0 size=N/A time=00:07:49.51 bitrate=N/A speed=19.8x    frame=11505 fps=475 q=-0.0 size=N/A time=00:07:59.85 bitrate=N/A speed=19.8x    frame=11760 fps=475 q=-0.0 size=N/A time=00:08:10.49 bitrate=N/A speed=19.8x    frame=12029 fps=476 q=-0.0 size=N/A time=00:08:21.70 bitrate=N/A speed=19.9x    frame=12315 fps=478 q=-0.0 size=N/A time=00:08:33.63 bitrate=N/A speed=19.9x    frame=12600 fps=479 q=-0.0 size=N/A time=00:08:45.52 bitrate=N/A speed=  20x    frame=12843 fps=479 q=-0.0 size=N/A time=00:08:55.66 bitrate=N/A speed=  20x    frame=13110 fps=480 q=-0.0 size=N/A time=00:09:06.79 bitrate=N/A speed=  20x    frame=13390 fps=481 q=-0.0 size=N/A time=00:09:18.47 bitrate=N/A speed=20.1x    frame=13671 fps=482 q=-0.0 size=N/A time=00:09:30.19 bitrate=N/A speed=20.1x    frame=13941 fps=483 q=-0.0 size=N/A time=00:09:41.45 bitrate=N/A speed=20.1x    frame=14199 fps=483 q=-0.0 size=N/A time=00:09:52.21 bitrate=N/A speed=20.1x    frame=14469 fps=484 q=-0.0 size=N/A time=00:10:03.47 bitrate=N/A speed=20.2x    frame=14717 fps=484 q=-0.0 size=N/A time=00:10:13.82 bitrate=N/A speed=20.2x    frame=14952 fps=483 q=-0.0 size=N/A time=00:10:23.62 bitrate=N/A speed=20.2x    frame=15201 fps=483 q=-0.0 size=N/A time=00:10:34.00 bitrate=N/A speed=20.2x    frame=15422 fps=482 q=-0.0 size=N/A time=00:10:43.22 bitrate=N/A speed=20.1x    frame=15613 fps=481 q=-0.0 size=N/A time=00:10:51.19 bitrate=N/A speed=  20x    frame=15859 fps=481 q=-0.0 size=N/A time=00:11:01.45 bitrate=N/A speed=  20x    frame=16087 fps=480 q=-0.0 size=N/A time=00:11:10.96 bitrate=N/A speed=  20x    frame=16351 fps=480 q=-0.0 size=N/A time=00:11:21.97 bitrate=N/A speed=  20x    frame=16615 fps=481 q=-0.0 size=N/A time=00:11:32.98 bitrate=N/A speed=20.1x    frame=16807 fps=479 q=-0.0 size=N/A time=00:11:40.99 bitrate=N/A speed=  20x    frame=17079 fps=480 q=-0.0 size=N/A time=00:11:52.33 bitrate=N/A speed=  20x    frame=17357 fps=481 q=-0.0 size=N/A time=00:12:03.93 bitrate=N/A speed=20.1x    frame=17631 fps=481 q=-0.0 size=N/A time=00:12:15.35 bitrate=N/A speed=20.1x    frame=17906 fps=482 q=-0.0 size=N/A time=00:12:26.82 bitrate=N/A speed=20.1x    frame=18184 fps=483 q=-0.0 size=N/A time=00:12:38.42 bitrate=N/A speed=20.1x    frame=18445 fps=483 q=-0.0 size=N/A time=00:12:49.31 bitrate=N/A speed=20.1x    frame=18723 fps=484 q=-0.0 size=N/A time=00:13:00.90 bitrate=N/A speed=20.2x    frame=18948 fps=483 q=-0.0 size=N/A time=00:13:10.28 bitrate=N/A speed=20.2x    frame=19226 fps=484 q=-0.0 size=N/A time=00:13:21.88 bitrate=N/A speed=20.2x    frame=19494 fps=484 q=-0.0 size=N/A time=00:13:33.06 bitrate=N/A speed=20.2x    frame=19756 fps=485 q=-0.0 size=N/A time=00:13:43.98 bitrate=N/A speed=20.2x    frame=20035 fps=485 q=-0.0 size=N/A time=00:13:55.62 bitrate=N/A speed=20.2x    frame=20295 fps=486 q=-0.0 size=N/A time=00:14:06.47 bitrate=N/A speed=20.3x    frame=20584 fps=487 q=-0.0 size=N/A time=00:14:18.52 bitrate=N/A speed=20.3x    frame=20856 fps=487 q=-0.0 size=N/A time=00:14:29.86 bitrate=N/A speed=20.3x    frame=21140 fps=488 q=-0.0 size=N/A time=00:14:41.71 bitrate=N/A speed=20.3x    frame=21385 fps=488 q=-0.0 size=N/A time=00:14:51.93 bitrate=N/A speed=20.3x    frame=21656 fps=488 q=-0.0 size=N/A time=00:15:03.23 bitrate=N/A speed=20.4x    frame=21906 fps=488 q=-0.0 size=N/A time=00:15:13.66 bitrate=N/A speed=20.4x    frame=22123 fps=487 q=-0.0 size=N/A time=00:15:22.71 bitrate=N/A speed=20.3x    frame=22384 fps=488 q=-0.0 size=N/A time=00:15:33.59 bitrate=N/A speed=20.3x    frame=22650 fps=488 q=-0.0 size=N/A time=00:15:44.69 bitrate=N/A speed=20.4x    frame=22907 fps=488 q=-0.0 size=N/A time=00:15:55.41 bitrate=N/A speed=20.4x    frame=23101 fps=487 q=-0.0 size=N/A time=00:16:03.50 bitrate=N/A speed=20.3x    frame=23351 fps=487 q=-0.0 size=N/A time=00:16:13.93 bitrate=N/A speed=20.3x    frame=23591 fps=486 q=-0.0 size=N/A time=00:16:23.94 bitrate=N/A speed=20.3x    frame=23842 fps=487 q=-0.0 size=N/A time=00:16:34.41 bitrate=N/A speed=20.3x    frame=24074 fps=486 q=-0.0 size=N/A time=00:16:44.08 bitrate=N/A speed=20.3x    frame=24305 fps=486 q=-0.0 size=N/A time=00:16:53.72 bitrate=N/A speed=20.3x    frame=24563 fps=486 q=-0.0 size=N/A time=00:17:04.48 bitrate=N/A speed=20.3x    frame=24798 fps=486 q=-0.0 size=N/A time=00:17:14.28 bitrate=N/A speed=20.3x    frame=25039 fps=485 q=-0.0 size=N/A time=00:17:24.33 bitrate=N/A speed=20.2x    frame=25295 fps=486 q=-0.0 size=N/A time=00:17:35.01 bitrate=N/A speed=20.3x    frame=25535 fps=485 q=-0.0 size=N/A time=00:17:45.02 bitrate=N/A speed=20.2x    frame=25774 fps=485 q=-0.0 size=N/A time=00:17:54.99 bitrate=N/A speed=20.2x    frame=25995 fps=485 q=-0.0 size=N/A time=00:18:04.20 bitrate=N/A speed=20.2x    frame=26223 fps=484 q=-0.0 size=N/A time=00:18:13.71 bitrate=N/A speed=20.2x    frame=26452 fps=484 q=-0.0 size=N/A time=00:18:23.26 bitrate=N/A speed=20.2x    frame=26727 fps=484 q=-0.0 size=N/A time=00:18:34.73 bitrate=N/A speed=20.2x    frame=26979 fps=484 q=-0.0 size=N/A time=00:18:45.24 bitrate=N/A speed=20.2x    frame=27227 fps=484 q=-0.0 size=N/A time=00:18:55.59 bitrate=N/A speed=20.2x    frame=27468 fps=484 q=-0.0 size=N/A time=00:19:05.64 bitrate=N/A speed=20.2x    frame=27720 fps=484 q=-0.0 size=N/A time=00:19:16.15 bitrate=N/A speed=20.2x    frame=27991 fps=485 q=-0.0 size=N/A time=00:19:27.45 bitrate=N/A speed=20.2x    frame=28258 fps=485 q=-0.0 size=N/A time=00:19:38.59 bitrate=N/A speed=20.2x    frame=28519 fps=485 q=-0.0 size=N/A time=00:19:49.47 bitrate=N/A speed=20.2x    frame=28761 fps=485 q=-0.0 size=N/A time=00:19:59.57 bitrate=N/A speed=20.2x    frame=29011 fps=485 q=-0.0 size=N/A time=00:20:10.00 bitrate=N/A speed=20.2x    frame=29264 fps=485 q=-0.0 size=N/A time=00:20:20.55 bitrate=N/A speed=20.2x    frame=29546 fps=485 q=-0.0 size=N/A time=00:20:32.31 bitrate=N/A speed=20.2x    frame=29802 fps=486 q=-0.0 size=N/A time=00:20:42.99 bitrate=N/A speed=20.3x    frame=30050 fps=485 q=-0.0 size=N/A time=00:20:53.33 bitrate=N/A speed=20.2x    frame=30271 fps=485 q=-0.0 size=N/A time=00:21:02.55 bitrate=N/A speed=20.2x    frame=30490 fps=485 q=-0.0 size=N/A time=00:21:11.68 bitrate=N/A speed=20.2x    frame=30748 fps=485 q=-0.0 size=N/A time=00:21:22.44 bitrate=N/A speed=20.2x    frame=30987 fps=485 q=-0.0 size=N/A time=00:21:32.41 bitrate=N/A speed=20.2x    frame=31228 fps=484 q=-0.0 size=N/A time=00:21:42.46 bitrate=N/A speed=20.2x    frame=31496 fps=485 q=-0.0 size=N/A time=00:21:53.64 bitrate=N/A speed=20.2x    frame=31769 fps=485 q=-0.0 size=N/A time=00:22:05.03 bitrate=N/A speed=20.2x    frame=32044 fps=485 q=-0.0 size=N/A time=00:22:16.50 bitrate=N/A speed=20.2x    frame=32280 fps=485 q=-0.0 size=N/A time=00:22:26.34 bitrate=N/A speed=20.2x    frame=32500 fps=485 q=-0.0 size=N/A time=00:22:35.52 bitrate=N/A speed=20.2x    frame=32728 fps=484 q=-0.0 size=N/A time=00:22:45.03 bitrate=N/A speed=20.2x    frame=32978 fps=484 q=-0.0 size=N/A time=00:22:55.45 bitrate=N/A speed=20.2x    frame=33188 fps=484 q=-0.0 size=N/A time=00:23:04.21 bitrate=N/A speed=20.2x    frame=33429 fps=484 q=-0.0 size=N/A time=00:23:14.26 bitrate=N/A speed=20.2x    frame=33651 fps=483 q=-0.0 size=N/A time=00:23:23.52 bitrate=N/A speed=20.2x    frame=33871 fps=483 q=-0.0 size=N/A time=00:23:32.70 bitrate=N/A speed=20.1x    frame=34111 fps=483 q=-0.0 size=N/A time=00:23:42.71 bitrate=N/A speed=20.1x    [Parsed_psnr_10 @ 000002bea6664040] PSNR y:48.716352 u:50.541645 v:50.617695 average:49.253212 min:42.775961 max:inf
[out#0/null @ 000002be991df580] video:14697KiB audio:267516KiB subtitle:0KiB other streams:0KiB global headers:0KiB muxing overhead: unknown
frame=34205 fps=483 q=-0.0 Lsize=N/A time=00:23:46.63 bitrate=N/A speed=20.1x    
